<?xml version="1.0" standalone="no"?><!DOCTYPE svg PUBLIC "-//W3C//DTD SVG 1.1//EN" "http://www.w3.org/Graphics/SVG/1.1/DTD/svg11.dtd"><svg t="1782379712792" class="icon" viewBox="0 0 1024 1024" version="1.1" xmlns="http://www.w3.org/2000/svg" p-id="1943" xmlns:xlink="http://www.w3.org/1999/xlink" width="256" height="256"><path d="M366.08 881.6128c-15.36 0-25.344-9.6384-26.0608-24.2816L325.376 342.08c-0.3584-15.0016 9.6384-24.2816 25.7152-24.2816 14.2848 0 24.9856 8.9216 25.344 23.9232l15.36 515.2512c0.3584 14.6432-9.9968 24.64-25.7152 24.64z m140.6848 0c-15.3472 0-26.4192-9.9968-26.4192-24.64V342.08c0-14.6432 11.072-24.2816 26.4192-24.2816 15.36 0 26.432 9.6384 26.432 24.2816V856.96c0 14.6432-11.072 24.64-26.432 24.64z m140.3392 0c-15.7184 0-25.7152-9.9968-25.344-24.2816l14.976-515.2512c0.3712-15.0016 11.0848-24.2816 25.728-24.2816 15.7056 0 25.7024 9.6384 25.344 24.64L673.152 857.3312c-0.7168 15.0016-10.7136 24.2816-26.0608 24.2816z m-339.2256-677.376h62.4896v-98.176c0-28.5696 19.6352-47.1424 50.3552-47.1424H591.744c30.7072 0 50.3424 18.56 50.3424 47.1296v98.2016h62.4896v-101.76C704.5888 38.912 663.5264 0 595.328 0H417.152c-67.84 0-109.2736 38.912-109.2736 102.4768v101.76zM93.632 235.328H919.552a29.7984 29.7984 0 0 0 29.632-29.6448c0-16.4224-13.2096-29.9904-29.632-29.9904H93.632C77.9264 175.68 64 189.6064 64 205.6704c0 16.4352 13.9264 29.6448 29.632 29.6448z m203.5328 784.4864h419.5712c61.4144 0 104.6144-41.7792 107.8272-103.1936l33.92-690.5856H155.0592l33.92 690.944c3.2 61.4144 45.696 102.8352 108.1856 102.8352z" fill="#5E86D3" p-id="1944"></path></svg>