<?xml version="1.0" standalone="no"?><!DOCTYPE svg PUBLIC "-//W3C//DTD SVG 1.1//EN" "http://www.w3.org/Graphics/SVG/1.1/DTD/svg11.dtd"><svg t="1782452948930" class="icon" viewBox="0 0 1024 1024" version="1.1" xmlns="http://www.w3.org/2000/svg" p-id="2167" xmlns:xlink="http://www.w3.org/1999/xlink" width="256" height="256"><path d="M617.511385 115.357538c-0.472615 1.536-0.807385 3.150769-1.043693 4.765539a131.131077 131.131077 0 0 0-1.988923 13.233231 144.974769 144.974769 0 0 0 1.969231 42.594461c0.472615 2.894769 1.102769 5.710769 1.969231 8.467693H339.436308c-102.872615 0-167.345231 48.64-167.345231 125.243076 0 77.981538 69.041231 130.737231 206.651077 144.955077l260.608 27.529847c177.388308 17.880615 269.292308 99.544615 269.292308 224.315076 0 122.033231-93.262769 199.089231-240.935385 199.089231H387.899077c0.433231-1.575385 0.846769-3.170462 1.220923-4.785231 0.472615-1.536 0.807385-3.150769 1.043692-4.765538a131.682462 131.682462 0 0 0 1.969231-13.233231 146.116923 146.116923 0 0 0-1.969231-42.594461 57.501538 57.501538 0 0 0-1.96923-8.467693h279.453538c102.872615 0 167.345231-48.64 167.345231-125.243077 0-77.981538-69.513846-130.737231-206.651077-144.955076l-261.513846-27.529847C189.892923 516.076308 98.461538 434.432 98.461538 309.661538c0-122.033231 93.262769-199.089231 240.955077-199.08923H618.732308c-0.452923 1.575385-0.866462 3.170462-1.240616 4.78523z" fill="#5E86D3" p-id="2168"></path><path d="M761.403077 295.896615c81.388308 0 147.219692-66.520615 147.219692-147.712C908.622769 66.520615 842.791385 0 761.403077 0s-147.672615 66.520615-147.672615 148.184615c0 81.191385 66.284308 147.692308 147.692307 147.692308zM245.681231 1016.123077c81.388308 0 147.219692-66.520615 147.219692-148.184615 0-81.191385-65.831385-147.692308-147.219692-147.692308S98.461538 786.727385 98.461538 867.918769C98.461538 949.602462 164.292923 1016.123077 245.681231 1016.123077z" fill="#5E86D3" p-id="2169"></path></svg>