<?xml version="1.0" standalone="no"?><!DOCTYPE svg PUBLIC "-//W3C//DTD SVG 1.1//EN" "http://www.w3.org/Graphics/SVG/1.1/DTD/svg11.dtd"><svg t="1782437262068" class="icon" viewBox="0 0 1024 1024" version="1.1" xmlns="http://www.w3.org/2000/svg" p-id="1501" xmlns:xlink="http://www.w3.org/1999/xlink" width="256" height="256"><path d="M236.453 512c0 152.231 123.342 275.62 275.577 275.62 152.307 0 275.77-123.389 275.77-275.62 0-152.166-123.463-275.62-275.77-275.62-152.235 0-275.577 123.454-275.577 275.62zM485.035 0h53.99v174.718h-53.99zM485.035 849.282h53.99V1024h-53.99zM366.773 206.42L279.324 55.11l-46.749 26.999 87.439 151.307zM657.287 817.58l87.449 151.31 46.749-26.999-87.438-151.307zM233.362 319.965L82.106 232.691 55.111 279.44l151.256 87.277zM790.566 704.035l151.449 87.274 26.995-46.749-151.448-87.277zM174.696 485.037L0 485.07v53.926l174.696-0.033zM849.233 485.07v53.926L1024 538.93v-53.926zM206.367 657.318L55.051 744.691l26.995 46.684 151.316-87.376zM817.562 366.783l151.316-87.442-26.994-46.683L790.566 320.1zM232.575 941.992l46.749 26.928 87.318-151.307-46.759-26.93zM791.354 82.174l-46.749-26.998-87.378 151.378 46.749 26.993z" fill="#FFAB40" p-id="1502"></path></svg>