<?xml version="1.0" standalone="no"?><!DOCTYPE svg PUBLIC "-//W3C//DTD SVG 1.1//EN" "http://www.w3.org/Graphics/SVG/1.1/DTD/svg11.dtd"><svg t="1782453029915" class="icon" viewBox="0 0 1632 1024" version="1.1" xmlns="http://www.w3.org/2000/svg" p-id="2809" xmlns:xlink="http://www.w3.org/1999/xlink" width="408" height="256"><path d="M641.60378402 879.04060348c344.41247903 0 585.38496653-281.55880497 585.38496654-368.74422634C1226.98875056 422.40946362 984.99408873 141.21142578 641.60378402 141.21142578 301.25995787 141.21142578 55.87809246 422.40946362 55.87809246 510.29637714c0 87.18542137 244.72045898 368.74422635 585.72569156 368.74422634z m-1e-8-126.06811524c-133.84465386 0-242.67611111-108.83145725-242.6761111-242.6761111 0-134.18537887 108.83145725-243.01683612 242.6761111-243.01683612 133.84465386 0 242.67611111 108.83145725 242.67611112 243.01683611 0 133.84465386-108.83145725 242.67611111-242.67611111 242.67611111z m0-157.51499474a85.1009885 85.1009885 0 0 0 85.50184064-85.18115922 85.38158492 85.38158492 0 0 0-85.50184064-85.50184137 85.38158492 85.38158492 0 0 0-85.50184064 85.52188422c0 47.30059679 38.1812017 85.18115921 85.50184064 85.1811585z" fill="#5E86D3" p-id="2810"></path></svg>