<?xml version="1.0" standalone="no"?><!DOCTYPE svg PUBLIC "-//W3C//DTD SVG 1.1//EN" "http://www.w3.org/Graphics/SVG/1.1/DTD/svg11.dtd"><svg t="1782452952436" class="icon" viewBox="0 0 1024 1024" version="1.1" xmlns="http://www.w3.org/2000/svg" p-id="2328" xmlns:xlink="http://www.w3.org/1999/xlink" width="256" height="256"><path d="M780.928 53.643636l194.455273 227.060364c33.652364 39.249455 42.379636 64.768 42.379636 116.468364v229.655272c0 51.700364-8.727273 77.218909-42.379636 116.48l-194.443637 227.037091C750.382545 1005.032727 719.220364 1024 662.504727 1024H354.629818c-56.087273 0-87.877818-18.967273-117.794909-53.643636L41.762909 743.284364C8.715636 704.046545 0 678.528 0 626.827636V397.172364c0-51.700364 8.727273-77.207273 41.762909-116.48L236.834909 53.666909C266.740364 18.967273 298.542545 0 354.629818 0h307.886546c56.715636 0 87.877818 18.967273 118.411636 53.643636zM449.361455 726.295273c0 33.373091 28.043636 59.543273 59.205818 59.543272 31.790545 0 59.834182-25.518545 59.834182-59.543272a59.927273 59.927273 0 0 0-59.834182-60.194909c-31.778909 0-59.205818 26.833455-59.205818 60.194909z m6.865454-443.624728l7.470546 278.737455c0.628364 30.103273 16.209455 47.115636 44.869818 47.115636 28.043636 0 43.636364-16.360727 44.253091-47.115636l7.482181-278.074182c0.616727-30.754909-21.818182-53.655273-52.363636-53.655273-30.533818 0-52.340364 22.248727-51.723636 52.992z" fill="#5E86D3" p-id="2329"></path></svg>