<?xml version="1.0" standalone="no"?><!DOCTYPE svg PUBLIC "-//W3C//DTD SVG 1.1//EN" "http://www.w3.org/Graphics/SVG/1.1/DTD/svg11.dtd"><svg t="1782452956561" class="icon" viewBox="0 0 1024 1024" version="1.1" xmlns="http://www.w3.org/2000/svg" p-id="2488" xmlns:xlink="http://www.w3.org/1999/xlink" width="256" height="256"><path d="M806.46189 324.923077l144.609055 193.547253c15.393758 20.60378 20.626286 35.682462 20.626286 67.989099v217.853186c0 78.454154-40.318593 118.761495-120.01055 118.761495h-692.606593C79.691956 923.07411 39.384615 883.081846 39.384615 804.312615v-217.853186c0-32.295385 5.232527-47.374066 20.311209-68.000352l144.924132-193.536c40.307341-54.463297 63.071648-68.923077 129.226549-68.923077h75.393407v48.00422h-80.007033c-30.157363 0-52.92167 9.227253-71.387428 34.455912L103.99789 546.152088c-5.536352 8.000703-3.072 17.543033 8.304528 17.543033h263.393055c19.377231 0 28.91956 14.45978 28.91956 30.461187v1.84545c0 52.302769 40.307341 103.378989 100.92589 103.378989 60.607297 0 100.914637-51.07622 100.914637-103.378989V594.145055c0-16.001407 9.54233-30.461187 28.919561-30.461187h263.089231c11.38778 0 13.840879-9.54233 8.304527-17.543033L753.236396 338.460132c-18.465758-25.228659-41.241319-34.455912-71.387429-34.455912h-80.007033V256h75.393407c66.154901 0 88.919209 14.45978 129.226549 68.923077z" fill="#5E86D3" p-id="2489"></path><path d="M370.462945 179.07622c6.459077 0 13.840879-2.768176 18.769582-8.304528l66.76255-70.160879 49.545846-51.987692L554.76044 100.59956l66.762549 70.16088a25.093626 25.093626 0 0 0 18.465758 8.304527c13.840879 0 24.621011-10.149978 24.621011-24.00211 0-7.381802-2.779429-12.603077-8.000703-17.846857L524.918154 8.923429C518.459077 2.464352 512.315077 0 505.540923 0c-7.089231 0-12.929407 2.464352-19.692308 8.923429L354.157714 137.227253c-5.232527 5.232527-8.000703 10.465055-8.000703 17.846857 0 13.840879 10.149978 24.00211 24.305934 24.00211z m135.077978 362.766066c14.45978 0 26.770286-12.299253 26.770286-26.455209V133.536352l-3.690901-98.146462c-0.618901-12.625582-10.465055-23.079385-23.079385-23.079385s-22.460484 10.465055-23.079385 23.068132l-3.994725 98.157715v381.850725c0 14.155956 12.299253 26.455209 27.07411 26.455209z" fill="#5E86D3" p-id="2490"></path></svg>