<?xml version="1.0" standalone="no"?><!DOCTYPE svg PUBLIC "-//W3C//DTD SVG 1.1//EN" "http://www.w3.org/Graphics/SVG/1.1/DTD/svg11.dtd"><svg t="1782452937485" class="icon" viewBox="0 0 1024 1024" version="1.1" xmlns="http://www.w3.org/2000/svg" p-id="1685" xmlns:xlink="http://www.w3.org/1999/xlink" width="256" height="256"><path d="M267.30496 986.9312H752.64c72.704 0 113.72544-40.83712 113.72544-116.20352V513.47456c0-74.9568-41.02144-115.79392-113.72544-115.79392H267.30496C194.21184 397.68064 153.6 438.4768 153.6 513.47456v357.25312c0 75.3664 40.61184 116.20352 113.70496 116.20352z m-20.6848-555.88864h71.4752v-160.5632c0-130.72384 85.66784-204.92288 191.67232-204.92288s192.512 74.19904 192.512 204.92288v160.5632h71.4752V278.7328C773.7344 95.78496 650.28096 0 509.7472 0 369.664 0 246.59968 95.78496 246.59968 278.7328v152.30976z" fill="#5E86D3" p-id="1686"></path></svg>