<?xml version="1.0" standalone="no"?><!DOCTYPE svg PUBLIC "-//W3C//DTD SVG 1.1//EN" "http://www.w3.org/Graphics/SVG/1.1/DTD/svg11.dtd"><svg t="1782457229104" class="icon" viewBox="0 0 1024 1024" version="1.1" xmlns="http://www.w3.org/2000/svg" p-id="2005" xmlns:xlink="http://www.w3.org/1999/xlink" width="256" height="256"><path d="M177.237333 937.194667l325.312-174.848a19.925333 19.925333 0 0 1 18.901334 0l325.333333 174.848c16.938667 9.109333 35.669333-8.597333 28.074667-26.56L530.645333 96.597333a20.138667 20.138667 0 0 0-37.269333 0L149.12 910.634667c-7.573333 17.962667 11.157333 35.669333 28.096 26.56z" fill="#5E86D3" p-id="2006"></path><path d="M512 804.16L196.138667 973.930667c-50.837333 27.306667-107.029333-25.813333-84.266667-79.68L456.106667 80.192c21.162667-50.026667 90.624-50.026667 111.786666 0l344.234667 814.058667c22.762667 53.845333-33.450667 106.986667-84.266667 79.68L512 804.16z m-9.450667-41.770667l-325.333333 174.848c-16.917333 9.109333-35.669333-8.597333-28.074667-26.56L493.376 96.64a20.138667 20.138667 0 0 1 37.269333 0l344.213334 814.037333c7.594667 17.962667-11.157333 35.669333-28.096 26.56l-325.312-174.848a19.925333 19.925333 0 0 0-18.901334 0z" fill="#5E86D3" p-id="2007"></path></svg>