<?xml version="1.0" standalone="no"?><!DOCTYPE svg PUBLIC "-//W3C//DTD SVG 1.1//EN" "http://www.w3.org/Graphics/SVG/1.1/DTD/svg11.dtd"><svg t="1782457234268" class="icon" viewBox="0 0 1024 1024" version="1.1" xmlns="http://www.w3.org/2000/svg" p-id="2166" xmlns:xlink="http://www.w3.org/1999/xlink" width="256" height="256"><path d="M888.366545 775.098182c0 102.132364-159.418182 173.405091-382.778181 173.405091C281.914182 948.503273 122.181818 877.230545 122.181818 775.086545c0-85.410909 112.430545-149.341091 280.96-167.528727v51.083637c0 1.664 0 3.316364 0.093091 4.840727-124.136727 15.162182-210.734545 57.949091-210.734545 111.604363 0 67.781818 136.820364 118.050909 312.773818 118.05091 175.313455 0 312.773818-50.909091 312.773818-118.05091 0-53.213091-87.179636-96.337455-211.374545-111.592727 0.093091-1.524364 0.093091-3.188364 0.09309-4.852363v-51.2c168.890182 18.024727 281.6 82.036364 281.6 167.64509z" fill="#5E86D3" p-id="2167"></path><path d="M649.088 214.132364c0 68.736-47.720727 126.324364-112 140.322909v291.456c0 103.726545-17.815273 159.092364-31.813818 159.092363s-32.139636-56.005818-32.139637-159.092363V354.443636c-64.581818-14.312727-112-71.586909-112-140.322909 0-79.546182 63.953455-144.453818 144.139637-144.453818 79.860364 0 143.825455 64.907636 143.825454 144.453818z m-235.450182-42.635637c0 26.728727 23.226182 49.640727 49.314909 49.640728 27.042909 0 49.314909-22.912 49.314909-49.640728 0-26.728727-22.272-49.314909-49.314909-49.314909-26.088727 0-49.314909 22.586182-49.314909 49.314909z" fill="#5E86D3" p-id="2168"></path></svg>