<?xml version="1.0" standalone="no"?><!DOCTYPE svg PUBLIC "-//W3C//DTD SVG 1.1//EN" "http://www.w3.org/Graphics/SVG/1.1/DTD/svg11.dtd"><svg t="1782457222100" class="icon" viewBox="0 0 1043 1024" version="1.1" xmlns="http://www.w3.org/2000/svg" p-id="1845" xmlns:xlink="http://www.w3.org/1999/xlink" width="260.75" height="256"><path d="M111.28493521 997.395321h464.70279201c69.612679 0 108.872453-40.90203801 108.87245298-117.12241499V518.955472c0-76.23969802-39.25977401-117.141736-108.87245298-117.141736H111.28493521C41.30516118 401.813736 2.41248218 442.71577399 2.41248218 518.955472v361.298113c0 76.23969802 38.892679 117.141736 108.87245303 117.141736z m426.21584899-561.82822699h68.04769798v-162.004528c0-132.211925 82.42234-207.253736 183.93358501-207.253736 101.87834 0 184.32 75.041811 184.32 207.253736v113.16166c0 25.426113 15.166792 38.52558501 34.197736 38.52558499 18.296755 0 33.84996199-11.92090601 33.84996201-38.52558499V281.503396C1041.8497652 96.874264 924.01248218 0 789.46274619 0c-134.14400001 0-251.981283 96.874264-251.98128298 281.503396v154.06369799z" fill="#5E86D3" p-id="1846"></path></svg>