<?xml version="1.0" standalone="no"?><!DOCTYPE svg PUBLIC "-//W3C//DTD SVG 1.1//EN" "http://www.w3.org/Graphics/SVG/1.1/DTD/svg11.dtd"><svg t="1782440728748" class="icon" viewBox="0 0 1024 1024" version="1.1" xmlns="http://www.w3.org/2000/svg" p-id="1501" xmlns:xlink="http://www.w3.org/1999/xlink" width="256" height="256"><path d="M162.5075 797.5925H857.825c34.785 0 55.845-18.4725 55.845-46.0575 0-43.695-42.795-82.035-79.245-120.3525-32.7825-35.3025-37.8-107.2575-43.4925-168.7725-5.67-153.2925-49.5-261.5625-160.875-299.5425C615.365 105.38 571.5575 62 510.3575 62s-105.03 43.38-119.7225 100.8675c-111.375 37.98-155.1825 146.25-160.875 299.5425-5.6925 61.515-10.71 133.47-43.47 168.7725C149.48 669.5 107 707.84 107 751.5575c0 27.5625 21.06 46.035 55.5075 46.035zM510.335 962c71.235 0 122.0625-51.7725 129.0825-110.925H381.23c6.705 59.1525 57.87 110.925 129.105 110.925z" fill="#f73720" fill-opacity=".85" p-id="1502"></path></svg>