<?xml version="1.0" standalone="no"?><!DOCTYPE svg PUBLIC "-//W3C//DTD SVG 1.1//EN" "http://www.w3.org/Graphics/SVG/1.1/DTD/svg11.dtd"><svg t="1782377737191" class="icon" viewBox="0 0 1024 1024" version="1.1" xmlns="http://www.w3.org/2000/svg" p-id="1313" xmlns:xlink="http://www.w3.org/1999/xlink" width="256" height="256"><path d="M729.206154 17.132308l144.738461 102.931692c19.298462 13.587692 18.944 33.240615 0 46.473846L728.871385 269.784615c-22.528 16.088615-42.535385 7.876923-42.535385-20.716307V174.749538H336.108308c-107.204923 0-174.395077 50.747077-174.395077 131.505231 0 81.132308 72.546462 136.861538 209.427692 151.177846l270.513231 28.23877c171.539692 17.506462 263.030154 97.910154 263.030154 219.05723 0 119.355077-91.844923 194.756923-237.64677 194.756923h-285.341538c2.481231-10.299077 3.741538-21.070769 3.741538-32.157538 0-10.673231-1.181538-21.090462-3.50523-31.094154h285.10523c107.204923 0 174.395077-50.747077 174.395077-131.505231 0-81.132308-72.546462-136.861538-209.408-151.158153l-271.950769-28.23877C189.912615 508.179692 98.461538 427.401846 98.461538 306.254769c0-119.355077 91.844923-194.756923 237.64677-194.756923h350.227692V37.868308c0-28.947692 20.007385-37.159385 42.889846-20.716308z" fill="#1296db" p-id="1314"></path><path d="M241.762462 1011.003077a143.675077 143.675077 0 0 0 143.675076-143.675077c0-78.966154-64.334769-143.300923-143.675076-143.300923-78.966154 0-143.300923 64.334769-143.300924 143.300923 0 79.36 64.334769 143.675077 143.300924 143.675077z" fill="#1296db" p-id="1315"></path></svg>